<svg xmlns="http://www.w3.org/2000/svg" width="24" height="16" viewBox="0 0 24 16"><defs><style>.a{fill:#41479b;}.b{fill:#f5f5f5;}.c{fill:#ff4b55;}</style></defs><g transform="translate(0 -88.276)"><path class="a" d="M23.586,104.276H.414A.418.418,0,0,1,0,103.855V88.7a.418.418,0,0,1,.414-.421H23.586A.418.418,0,0,1,24,88.7v15.158A.418.418,0,0,1,23.586,104.276Z" transform="translate(0 0)"/><path class="b" d="M11.586,88.277h-.719L7.034,90.832V88.277H4.965v2.555L1.132,88.277H.414A.417.417,0,0,0,0,88.7v.334l3.289,2.192H0V93.33H3.289L0,95.522v.334a.418.418,0,0,0,.414.421h.719l3.833-2.555v2.555H7.035V93.722l3.833,2.555h.719A.418.418,0,0,0,12,95.856v-.334L8.712,93.33H12V91.224H8.711L12,89.032V88.7A.417.417,0,0,0,11.586,88.277Z" transform="translate(0 -0.001)"/><g transform="translate(0 88.276)"><path class="c" d="M12,91.645H6.621V88.277H5.379v3.368H0v1.263H5.379v3.368H6.621V92.909H12Z" transform="translate(0 -88.277)"/><path class="c" d="M4.552,92.645.2,89.769a.416.416,0,0,0-.2.35v.022l3.792,2.5Z" transform="translate(0 -89.698)"/><path class="c" d="M150.829,91.224l4.143-2.736a.407.407,0,0,0-.351-.211h-.089l-4.462,2.947Z" transform="translate(-143.035 -88.277)"/><path class="c" d="M5.4,194.208l-4.135,2.731a.408.408,0,0,0,.354.216H1.7l4.462-2.947H5.4Z" transform="translate(-1.21 -189.155)"/><path class="c" d="M161.615,196.767l-3.875-2.559h-.76l4.4,2.906A.417.417,0,0,0,161.615,196.767Z" transform="translate(-149.622 -189.155)"/></g><g transform="translate(4.152 91.079)"><path class="b" d="M90.546,302.79l.312,1.049,1-.406a.094.094,0,0,1,.111.141l-.611.9.936.543a.1.1,0,0,1-.04.176l-1.075.076.166,1.083a.093.093,0,0,1-.16.079l-.729-.807-.729.807a.093.093,0,0,1-.16-.079l.166-1.083-1.075-.076a.1.1,0,0,1-.04-.176l.936-.543-.611-.9a.094.094,0,0,1,.111-.141l1,.406.312-1.049A.093.093,0,0,1,90.546,302.79Z" transform="translate(-88.573 -295.298)"/><path class="b" d="M373.676,147.075l.153.513.489-.2a.046.046,0,0,1,.054.069l-.3.441.457.265a.046.046,0,0,1-.019.086l-.525.037.081.529a.045.045,0,0,1-.078.038l-.356-.394-.356.394a.045.045,0,0,1-.078-.038l.081-.529-.525-.037a.046.046,0,0,1-.019-.086l.457-.265-.3-.441a.046.046,0,0,1,.054-.069l.489.2.153-.513A.045.045,0,0,1,373.676,147.075Z" transform="translate(-359.393 -147.042)"/><path class="b" d="M301.1,229.551l.153.513.489-.2a.046.046,0,0,1,.054.069l-.3.441.457.265a.046.046,0,0,1-.019.086l-.525.037.081.529a.045.045,0,0,1-.078.038l-.356-.394-.356.394a.045.045,0,0,1-.078-.038l.081-.529-.525-.037a.046.046,0,0,1-.019-.086l.457-.265-.3-.441a.046.046,0,0,1,.054-.069l.489.2.153-.513A.045.045,0,0,1,301.1,229.551Z" transform="translate(-290.218 -225.584)"/><path class="b" d="M442.341,194.24l.153.513.489-.2a.046.046,0,0,1,.054.069l-.3.441.457.265a.046.046,0,0,1-.019.086l-.525.037.081.529a.045.045,0,0,1-.078.038l-.356-.394-.356.394a.045.045,0,0,1-.078-.038l.081-.529-.525-.037a.046.046,0,0,1-.019-.086l.457-.265-.3-.441a.046.046,0,0,1,.054-.069l.489.2.153-.513A.045.045,0,0,1,442.341,194.24Z" transform="translate(-424.839 -191.958)"/><path class="b" d="M373.676,335.482l.153.512.489-.2a.046.046,0,0,1,.054.069l-.3.441.457.265a.046.046,0,0,1-.019.086l-.525.037.081.529a.045.045,0,0,1-.078.038l-.356-.394-.356.394a.045.045,0,0,1-.078-.038l.081-.529-.525-.037a.046.046,0,0,1-.019-.086l.457-.265-.3-.441a.046.046,0,0,1,.054-.069l.489.2.153-.512A.045.045,0,0,1,373.676,335.482Z" transform="translate(-359.393 -326.463)"/><path class="b" d="M407.044,248.789l-.122.374-.387,0a.053.053,0,0,0-.031.1l.311.234-.117.376a.052.052,0,0,0,.08.059l.315-.229.315.229a.052.052,0,0,0,.08-.059l-.117-.376.311-.234a.053.053,0,0,0-.031-.1l-.387,0-.122-.374A.052.052,0,0,0,407.044,248.789Z" transform="translate(-391.581 -243.901)"/></g></g></svg>