<svg xmlns="http://www.w3.org/2000/svg" width="24" height="16" viewBox="0 0 24 16"><g transform="translate(0 -88.273)"><g transform="translate(0 88.273)"><path d="M23.586,104.273H.414A.418.418,0,0,1,0,103.852V88.694a.418.418,0,0,1,.414-.421H23.586a.418.418,0,0,1,.414.421v15.158A.418.418,0,0,1,23.586,104.273Z" transform="translate(0 -88.273)" fill="#f5f5f5"/><rect width="13.241" height="16" transform="translate(5.379 0)" fill="#f5f5f5"/></g><g transform="translate(0 88.273)"><path d="M.414,88.274A.417.417,0,0,0,0,88.7v15.158a.418.418,0,0,0,.414.421H5.379v-16Z" transform="translate(0 -88.274)" fill="#ff4b55"/><path d="M402.207,88.274h-4.966v16h4.966a.418.418,0,0,0,.414-.421V88.7A.417.417,0,0,0,402.207,88.274Z" transform="translate(-378.62 -88.274)" fill="#ff4b55"/><path d="M157.548,159.044,160,157.617l-.563-.287a.423.423,0,0,1-.225-.432l.183-1.4-1.04.308a.413.413,0,0,1-.52-.313l-.1-.458-.976,1.162a.205.205,0,0,1-.358-.171l.417-2.466-.638.178a.411.411,0,0,1-.474-.208l-.672-1.282v0h0v0l-.672,1.282a.411.411,0,0,1-.474.208l-.638-.178.417,2.466a.205.205,0,0,1-.358.171l-.976-1.162-.1.458a.413.413,0,0,1-.52.313l-1.04-.308.183,1.4a.423.423,0,0,1-.225.432l-.563.287,2.455,1.428a.613.613,0,0,1,.263.741l-.21.571,2.1-.183a.2.2,0,0,1,.212.2l-.066,2.292h.414l-.066-2.292a.2.2,0,0,1,.212-.2l2.1.183-.21-.571A.613.613,0,0,1,157.548,159.044Z" transform="translate(-143.036 -149.196)" fill="#ff4b55"/></g></g></svg>