<svg xmlns="http://www.w3.org/2000/svg" xmlns:xlink="http://www.w3.org/1999/xlink" width="74" height="69.299" viewBox="0 0 74 69.299">
  <defs>
    <linearGradient id="linear-gradient" x1="0.5" x2="0.5" y2="1" gradientUnits="objectBoundingBox">
      <stop offset="0" stop-color="#ffb600" stop-opacity="0.82"/>
      <stop offset="1" stop-color="#ffb500" stop-opacity="0"/>
    </linearGradient>
    <filter id="椭圆_1715" x="24" y="41" width="26" height="26" filterUnits="userSpaceOnUse">
      <feOffset dy="3" input="SourceAlpha"/>
      <feGaussianBlur stdDeviation="3" result="blur"/>
      <feFlood flood-color="#ffbd16" flood-opacity="0.431"/>
      <feComposite operator="in" in2="blur"/>
      <feComposite in="SourceGraphic"/>
    </filter>
  </defs>
  <g id="icon_packagetwo_tips" transform="translate(-330 -383)">
    <path id="多边形_77" data-name="多边形 77" d="M31.806,8.985a6,6,0,0,1,10.389,0L68.8,55A6,6,0,0,1,63.6,64H10.4A6,6,0,0,1,5.2,55Z" transform="translate(330 383)" fill="#fff" opacity="0.1"/>
    <path id="路径_20448" data-name="路径 20448" d="M1.069-7.576H6.92L11.787,26l-15.029.3Z" transform="translate(363 414)" fill="url(#linear-gradient)"/>
    <rect id="矩形_3088" data-name="矩形 3088" width="8" height="26" rx="4" transform="translate(363 401)" fill="#fdd05f"/>
    <g transform="matrix(1, 0, 0, 1, 330, 383)" filter="url(#椭圆_1715)">
      <circle id="椭圆_1715-2" data-name="椭圆 1715" cx="4" cy="4" r="4" transform="translate(33 47)" fill="#fdd05f"/>
    </g>
  </g>
</svg>
