<svg xmlns="http://www.w3.org/2000/svg" xmlns:xlink="http://www.w3.org/1999/xlink" width="32" height="32" viewBox="0 0 32 32">
  <defs>
    <clipPath id="clip-path">
      <rect id="矩形_3072" data-name="矩形 3072" width="32" height="32" transform="translate(1207.783 414.783)" fill="#06d8f3" stroke="#707070" stroke-width="1"/>
    </clipPath>
    <filter id="路径_20443" x="0.319" y="5.677" width="32.397" height="26.646" filterUnits="userSpaceOnUse">
      <feOffset dy="3" input="SourceAlpha"/>
      <feGaussianBlur stdDeviation="2" result="blur"/>
      <feFlood flood-color="#1dfff7" flood-opacity="0.271"/>
      <feComposite operator="in" in2="blur"/>
      <feComposite in="SourceGraphic"/>
    </filter>
  </defs>
  <g id="icon_packagetwo_choose" transform="translate(-1207.783 -414.783)" clip-path="url(#clip-path)">
    <g transform="matrix(1, 0, 0, 1, 1207.78, 414.78)" filter="url(#路径_20443)">
      <path id="路径_20443-2" data-name="路径 20443" d="M17.955.458,7.292,11.15,2.572,6.339A1.472,1.472,0,0,0,.5,6.31a1.44,1.44,0,0,0-.03,2.05l5.759,5.874c0,.005.01.005.012.008s0,.012.007.012a1.406,1.406,0,0,0,.32.214,1.405,1.405,0,0,0,.155.1,1.484,1.484,0,0,0,1.1,0,1.479,1.479,0,0,0,.155-.1,1.275,1.275,0,0,0,.317-.209s0-.008.009-.008a.03.03,0,0,1,.011-.012L20.035,2.5A1.444,1.444,0,0,0,20.022.448a1.47,1.47,0,0,0-2.067.01Z" transform="translate(6.26 8.65)" fill="#06d8f3"/>
    </g>
  </g>
</svg>
