<svg xmlns="http://www.w3.org/2000/svg" xmlns:xlink="http://www.w3.org/1999/xlink" width="80" height="101" viewBox="0 0 80 101"><defs><style>.a{fill:#5d5f7e;opacity:0;}.b{opacity:0.05;}.c{clip-path:url(#a);}.d{fill:none;}.e{fill:#fff;}.f,.g{stroke:none;}.g{fill:#fff;}</style><clipPath id="a"><rect class="a" width="80" height="101" transform="translate(733.787 978.445)"/></clipPath></defs><g class="b" transform="translate(-733.787 -978.445)"><g class="c"><g class="d" transform="translate(707.888 965.445)"><path class="f" d="M44.407,2,0,22.174V49.115c0,7.482,2.316,15.2,6.883,22.94A86.383,86.383,0,0,0,21.558,90.1a145.187,145.187,0,0,0,22.85,17.454A145.2,145.2,0,0,0,67.258,90.1,86.409,86.409,0,0,0,81.933,72.055c4.567-7.741,6.882-15.459,6.882-22.94V22.174Z"/><path class="g" d="M 44.40738677978516 6.393402099609375 L 3.999992370605469 24.75011444091797 L 3.999992370605469 49.11484527587891 C 3.999992370605469 55.87088012695312 6.128974914550781 62.90536499023438 10.32787322998047 70.02301025390625 C 13.70143890380859 75.74209594726562 18.412353515625 81.52629852294922 24.32997131347656 87.21513366699219 C 31.8278694152832 94.42427062988281 40.52649307250977 100.3279266357422 44.40832901000977 102.8297348022461 C 48.28665542602539 100.33203125 56.97089767456055 94.44033050537109 64.48550415039062 87.21564483642578 C 70.40190887451172 81.52794647216797 75.11312103271484 75.743408203125 78.48818969726562 70.02288055419922 C 82.68662261962891 62.90604782104492 84.81540679931641 55.87156295776367 84.81540679931641 49.11484527587891 L 84.81540679931641 24.7501220703125 L 44.40738677978516 6.393402099609375 M 44.40735626220703 2 L 88.81540679931641 22.17386627197266 L 88.81540679931641 49.11484527587891 C 88.81540679931641 56.59639739990234 86.50003814697266 64.31426239013672 81.93337249755859 72.0552978515625 C 78.37319183349609 78.08958435058594 73.43600463867188 84.15972900390625 67.25765991210938 90.09926605224609 C 56.83935546875 100.1156005859375 44.40735626220703 107.5520935058594 44.40735626220703 107.5520935058594 C 44.40735626220703 107.5520935058594 31.97589111328125 100.1156005859375 21.55760955810547 90.09852600097656 C 15.37997436523438 84.15972900390625 10.44210815429688 78.08958435058594 6.882606506347656 72.0552978515625 C 2.315956115722656 64.31426239013672 -7.62939453125e-06 56.59639739990234 -7.62939453125e-06 49.11484527587891 L -7.62939453125e-06 22.17386627197266 L 44.40735626220703 2 Z"/></g><path class="e" d="M47.137,8.289,22.857,32.57a4.854,4.854,0,0,1-6.867,0L1.423,18a4.856,4.856,0,0,1,6.867-6.867L19.424,22.269,40.271,1.423a4.856,4.856,0,0,1,6.867,6.867Zm0,0" transform="matrix(1, 0.017, -0.017, 1, 728.316, 1002.805)"/></g></g></svg>