<svg xmlns="http://www.w3.org/2000/svg" xmlns:xlink="http://www.w3.org/1999/xlink" width="20" height="20" viewBox="0 0 20 20"><defs><clipPath id="a"><rect width="20" height="20" transform="translate(361.519 201.519)" fill="#fff" stroke="#707070" stroke-width="1"/></clipPath></defs><g transform="translate(-361.519 -201.519)" clip-path="url(#a)"><g transform="translate(364.245 203.682)"><path d="M19.887,15.034a10.52,10.52,0,0,1,4.362,1.135l2.913-2.556-.05-.047a12.506,12.506,0,0,0-1.219-.478,17.7,17.7,0,0,0-5.835-1h-.31A17.723,17.723,0,0,0,13.9,13.1a12.01,12.01,0,0,0-1.259.512h0l2.9,2.559a10.486,10.486,0,0,1,4.343-1.138Z" transform="translate(-12.621 -12.09)" fill="#b9b9b9"/><path d="M36.036,31.375h0c.22-.093,5.7-2.445,6.549-6.269A37.055,37.055,0,0,0,43.3,17l-2.9,2.544c0,1.725-.071,5.385-1.014,6.608a7.4,7.4,0,0,1-3.347,2.432v2.792h0Z" transform="translate(-28.755 -15.477)" fill="#b9b9b9"/><path d="M27.1,30.742c.078-.124.161-.245.242-.366l.254-.391a.813.813,0,0,1,.676-.372,4.3,4.3,0,0,1,.49.053.105.105,0,0,0,.084-.031A3.394,3.394,0,0,1,30.38,28.7a4.033,4.033,0,0,1,.859-.158,1.551,1.551,0,0,1,.416.019c.087.019.09.022.1.109a1.418,1.418,0,0,1,.019.257,3.912,3.912,0,0,1-.31,1.312,4.926,4.926,0,0,1-.847,1.213.118.118,0,0,0-.022.087c0,.13.019.261.031.391a.754.754,0,0,1-.332.729c-.382.267-.785.5-1.173.763-.043-.378-.065-.754-.087-1.132,0-.118,0-.118-.118-.133a.931.931,0,0,1-.692-.453.986.986,0,0,1-.133-.437c0-.047-.022-.059-.065-.062-.242,0-.487-.034-.729-.056l-.45-.034Zm3.723-.751a.515.515,0,1,0-1.027,0,.521.521,0,0,0,.5.515.515.515,0,0,0,.521-.515Z" transform="translate(-22.423 -23.437)" fill="#b9b9b9"/><path d="M18.085,44.464a7.517,7.517,0,0,1,2.482-4.7.986.986,0,0,1-.62-.447,1.014,1.014,0,0,1-.109-.254c-.2.14-2.618,1.954-4.507,1.914a7.492,7.492,0,0,0,2.754,3.487Z" transform="translate(-14.476 -30.693)" fill="#b9b9b9"/><path d="M13.3,25.1h0a7.638,7.638,0,0,0,2.569-.586,25.349,25.349,0,0,1-.378-4.963L12.588,17h0a36.851,36.851,0,0,0,.71,8.1Z" transform="translate(-12.578 -15.477)" fill="#b9b9b9"/><path d="M29.178,51A6.526,6.526,0,0,1,26.7,49.48a6.775,6.775,0,0,0-.586,2.528,17.416,17.416,0,0,0,3.068,1.765h0Z" transform="translate(-21.912 -37.881)" fill="#b9b9b9"/></g></g></svg>