<svg xmlns="http://www.w3.org/2000/svg" xmlns:xlink="http://www.w3.org/1999/xlink" width="87" height="86" viewBox="0 0 87 86"><defs><style>.a,.e{fill:#fff;}.a{stroke:#707070;stroke-width:3px;}.b{opacity:0.05;}.c{clip-path:url(#a);}.d{fill:none;}.f,.g{stroke:none;}.g{fill:#fff;}</style><clipPath id="a"><rect class="a" width="87" height="86" transform="translate(17 18)"/></clipPath></defs><g class="b" transform="translate(-16.167 -16.177)"><g class="c" transform="translate(-0.833 -1.823)"><g class="d" transform="translate(-8.753 9.75)"><path class="f" d="M36.635,11.843a16.791,16.791,0,0,1,28.743,0L96.483,63.328A16.791,16.791,0,0,1,82.112,88.8H19.9A16.791,16.791,0,0,1,5.529,63.328Z"/><path class="g" d="M 51.0063591003418 7.735206604003906 C 48.85244369506836 7.735206604003906 46.73065948486328 8.268722534179688 44.87041091918945 9.278053283691406 C 42.88369369506836 10.35601806640625 41.2646598815918 11.9150390625 40.05827713012695 13.91181945800781 L 8.952896118164062 65.39659118652344 C 7.705528259277344 67.46120452880859 7.076690673828125 69.68869018554688 7.0838623046875 72.01718902587891 C 7.090576171875 74.19255828857422 7.670356750488281 76.36378479003906 8.76055908203125 78.29617309570312 C 9.850761413574219 80.22855377197266 11.40932464599609 81.84757232666016 13.26779174804688 82.97824096679688 C 15.25707244873047 84.18846893310547 17.48880767822266 84.8021240234375 19.90097808837891 84.8021240234375 L 82.11172485351562 84.8021240234375 C 84.52391052246094 84.8021240234375 86.75562286376953 84.18846893310547 88.74492645263672 82.97822570800781 C 90.6033935546875 81.84757232666016 92.16195678710938 80.22853851318359 93.25215911865234 78.29615783691406 C 94.34236145019531 76.36378479003906 94.92214202880859 74.19255828857422 94.92885589599609 72.01718902587891 C 94.93602752685547 69.68869018554688 94.30718994140625 67.46118927001953 93.05982971191406 65.39659118652344 L 61.95444107055664 13.91181945800781 C 60.7480583190918 11.9150390625 59.12902450561523 10.35601806640625 57.14230728149414 9.278053283691406 C 55.28205871582031 8.268722534179688 53.16027450561523 7.735206604003906 51.0063591003418 7.735206604003906 M 51.00636672973633 3.735206604003906 C 56.55934906005859 3.735206604003906 62.11233520507812 6.437919616699219 65.37811279296875 11.84335327148438 L 96.48348999023438 63.32812118530273 C 103.2445449829102 74.51883697509766 95.18629455566406 88.8021240234375 82.11172485351562 88.8021240234375 L 19.90097808837891 88.8021240234375 C 6.826423645019531 88.8021240234375 -1.231826782226562 74.51883697509766 5.529228210449219 63.32812118530273 L 36.63460540771484 11.84335327148438 C 39.900390625 6.437919616699219 45.4533805847168 3.735206604003906 51.00636672973633 3.735206604003906 Z"/></g><path class="e" d="M-7748,394.274a6.3,6.3,0,0,1,6.3-6.3,6.3,6.3,0,0,1,6.291,6.3,6.291,6.291,0,0,1-6.291,6.293A6.3,6.3,0,0,1-7748,394.274Zm0-20.994V352.294a6.3,6.3,0,0,1,6.3-6.293,6.291,6.291,0,0,1,6.291,6.293V373.28a6.3,6.3,0,0,1-6.291,6.3A6.3,6.3,0,0,1-7748,373.28Z" transform="translate(7783.955 -312.61)"/></g></g></svg>