<svg xmlns="http://www.w3.org/2000/svg" width="108.906" height="14.246" viewBox="0 0 108.906 14.246">
  <g id="组_4912" data-name="组 4912" transform="translate(-1058.557 -813.644)">
    <path id="icon_packagetwo_star" d="M7.115,1.677a1,1,0,0,1,1.769,0l1.445,2.74a1,1,0,0,0,.718.52l3.059.516a1,1,0,0,1,.546,1.688L12.492,9.335a1,1,0,0,0-.277.848l.45,3.044a1,1,0,0,1-1.431,1.044L8.441,12.9a1,1,0,0,0-.883,0L4.765,14.27a1,1,0,0,1-1.431-1.044l.45-3.044a1,1,0,0,0-.277-.848L1.347,7.14a1,1,0,0,1,.546-1.688l3.059-.516a1,1,0,0,0,.718-.52Z" transform="translate(1058.009 813)" fill="none" stroke="#06d6f5" stroke-width="1"/>
    <path id="多边形_69" data-name="多边形 69" d="M7.115,1.677a1,1,0,0,1,1.769,0l1.445,2.74a1,1,0,0,0,.718.52l3.059.516a1,1,0,0,1,.546,1.688L12.492,9.335a1,1,0,0,0-.277.848l.45,3.044a1,1,0,0,1-1.431,1.044L8.441,12.9a1,1,0,0,0-.883,0L4.765,14.27a1,1,0,0,1-1.431-1.044l.45-3.044a1,1,0,0,0-.277-.848L1.347,7.14a1,1,0,0,1,.546-1.688l3.059-.516a1,1,0,0,0,.718-.52Z" transform="translate(1081.51 813)" fill="none" stroke="#06d6f5" stroke-width="1"/>
    <path id="多边形_70" data-name="多边形 70" d="M7.115,1.677a1,1,0,0,1,1.769,0l1.445,2.74a1,1,0,0,0,.718.52l3.059.516a1,1,0,0,1,.546,1.688L12.492,9.335a1,1,0,0,0-.277.848l.45,3.044a1,1,0,0,1-1.431,1.044L8.441,12.9a1,1,0,0,0-.883,0L4.765,14.27a1,1,0,0,1-1.431-1.044l.45-3.044a1,1,0,0,0-.277-.848L1.347,7.14a1,1,0,0,1,.546-1.688l3.059-.516a1,1,0,0,0,.718-.52Z" transform="translate(1105.009 813)" fill="none" stroke="#06d6f5" stroke-width="1"/>
    <path id="多边形_71" data-name="多边形 71" d="M7.115,1.677a1,1,0,0,1,1.769,0l1.445,2.74a1,1,0,0,0,.718.52l3.059.516a1,1,0,0,1,.546,1.688L12.492,9.335a1,1,0,0,0-.277.848l.45,3.044a1,1,0,0,1-1.431,1.044L8.441,12.9a1,1,0,0,0-.883,0L4.765,14.27a1,1,0,0,1-1.431-1.044l.45-3.044a1,1,0,0,0-.277-.848L1.347,7.14a1,1,0,0,1,.546-1.688l3.059-.516a1,1,0,0,0,.718-.52Z" transform="translate(1128.51 813)" fill="none" stroke="#06d6f5" stroke-width="1"/>
    <path id="多边形_72" data-name="多边形 72" d="M7.115,1.677a1,1,0,0,1,1.769,0l1.445,2.74a1,1,0,0,0,.718.52l3.059.516a1,1,0,0,1,.546,1.688L12.492,9.335a1,1,0,0,0-.277.848l.45,3.044a1,1,0,0,1-1.431,1.044L8.441,12.9a1,1,0,0,0-.883,0L4.765,14.27a1,1,0,0,1-1.431-1.044l.45-3.044a1,1,0,0,0-.277-.848L1.347,7.14a1,1,0,0,1,.546-1.688l3.059-.516a1,1,0,0,0,.718-.52Z" transform="translate(1152.009 813)" fill="none" stroke="#06d6f5" stroke-width="1"/>
  </g>
</svg>
