<svg xmlns="http://www.w3.org/2000/svg" width="19.7" height="20.7" viewBox="0 0 19.7 20.7"><defs><style>.a,.b{fill:#fff;}.b{stroke:rgba(0,0,0,0.03);stroke-width:2px;}.c,.d{stroke:none;}.d{fill:rgba(0,0,0,0.03);}.e{fill:none;}</style></defs><g transform="translate(-544 -360.755)"><g class="a" transform="translate(0 -6.178)"><path class="c" d="M556.766,371.292v.013a1.663,1.663,0,0,0,.712,1.354,6.28,6.28,0,1,1-7.442.137,1.678,1.678,0,0,0,.674-1.328v-.052a.51.51,0,0,0-.764-.442,7.85,7.85,0,1,0,7.567-.133A.51.51,0,0,0,556.766,371.292Z"/><path class="d" d="M 557.276123046875 370.7818908691406 C 557.0091552734375 370.7818908691406 556.7656860351562 370.996337890625 556.7656860351562 371.2921752929688 L 556.7656860351562 371.3047485351562 C 556.7656860351562 371.8459167480469 557.03662109375 372.3458862304688 557.47802734375 372.6587524414062 C 559.2391357421875 373.9073486328125 560.329345703125 376.0396728515625 560.0994262695312 378.4103698730469 C 559.8165893554688 381.3303527832031 557.4845581054688 383.6998901367188 554.5687866210938 384.0237731933594 C 550.779052734375 384.444580078125 547.5699462890625 381.4889221191406 547.5699462890625 377.78369140625 C 547.5699462890625 375.7500915527344 548.5372924804688 373.9434509277344 550.0361938476562 372.7960205078125 C 550.4529418945312 372.4770812988281 550.7099609375 371.9926147460938 550.7099609375 371.4678039550781 L 550.7099609375 371.4154968261719 C 550.7099609375 371.0236511230469 550.2850341796875 370.7789306640625 549.9456176757812 370.9739074707031 C 547.4654541015625 372.3985595703125 545.836669921875 375.1377868652344 546.012939453125 378.241455078125 C 546.2349853515625 382.1516723632812 549.3823852539062 385.3428039550781 553.2894287109375 385.6141967773438 C 557.87841796875 385.9325866699219 561.699951171875 382.3046264648438 561.699951171875 377.78369140625 C 561.699951171875 374.7715148925781 560.0025024414062 372.157470703125 557.5130004882812 370.8413696289062 C 557.435791015625 370.8005981445312 557.3549194335938 370.7818908691406 557.276123046875 370.7818908691406 M 557.2760620117188 368.7818908691406 L 557.2763671875 368.7818908691406 C 557.681884765625 368.7819519042969 558.086669921875 368.882568359375 558.4469604492188 369.0728454589844 C 561.6874389648438 370.7859497070312 563.699951171875 374.1235656738281 563.699951171875 377.78369140625 C 563.699951171875 383.2149963378906 559.2813110351562 387.6336975097656 553.8501586914062 387.6336975097656 C 553.6184692382812 387.6336975097656 553.3832397460938 387.6255187988281 553.15087890625 387.6094055175781 C 550.7752075195312 387.4443664550781 548.5359497070312 386.4101257324219 546.845703125 384.6971435546875 C 545.1560668945312 382.9848022460938 544.1511840820312 380.7323913574219 544.0161743164062 378.3548583984375 C 543.9097900390625 376.4819641113281 544.3312377929688 374.6325378417969 545.2349853515625 373.0064697265625 C 546.1072387695312 371.43701171875 547.3916625976562 370.1344604492188 548.949462890625 369.2396545410156 C 549.3298950195312 369.0210266113281 549.7620239257812 368.9053955078125 550.1989135742188 368.9053955078125 C 551.58349609375 368.9053955078125 552.7099609375 370.0314331054688 552.7099609375 371.4154968261719 L 552.7099609375 371.4678039550781 C 552.7099609375 372.6120300292969 552.178466796875 373.6750183105469 551.251708984375 374.38427734375 C 550.1829833984375 375.202392578125 549.5699462890625 376.4414672851562 549.5699462890625 377.78369140625 C 549.5699462890625 380.1437377929688 551.489990234375 382.0637512207031 553.8500366210938 382.0637512207031 C 554.0144653320312 382.0637512207031 554.1820678710938 382.0544128417969 554.34814453125 382.0359802246094 C 556.3341674804688 381.8153686523438 557.915771484375 380.20947265625 558.1087646484375 378.2175598144531 C 558.2598876953125 376.6590270996094 557.5916748046875 375.1909790039062 556.3212890625 374.290283203125 C 555.3472900390625 373.5999755859375 554.7656860351562 372.4837951660156 554.7656860351562 371.3047485351562 L 554.7656860351562 371.2921752929688 C 554.7656860351562 369.9080200195312 555.891845703125 368.7818908691406 557.2760620117188 368.7818908691406 Z"/></g><g class="b" transform="translate(553.01 362.755)"><rect class="c" width="1.68" height="8.401" rx="0.84"/><rect class="e" x="-1" y="-1" width="3.68" height="10.401" rx="1.84"/></g></g></svg>