<svg xmlns="http://www.w3.org/2000/svg" width="24" height="16" viewBox="0 0 24 16"><defs><style>.a{fill:#41479b;}.b{fill:#f5f5f5;}.c{fill:#ff4b55;}</style></defs><g transform="translate(0 -88.276)"><path class="a" d="M23.586,104.276H.414A.418.418,0,0,1,0,103.855V88.7a.418.418,0,0,1,.414-.421H23.586A.418.418,0,0,1,24,88.7v15.158A.418.418,0,0,1,23.586,104.276Z" transform="translate(0 0)"/><path class="b" d="M24,88.7a.418.418,0,0,0-.414-.421H21.735l-7.666,5.111V88.276H9.931v5.111L2.265,88.276H.414A.418.418,0,0,0,0,88.7v1.089l6.577,4.385H0v4.211H6.577L0,102.766v1.089a.418.418,0,0,0,.414.421H2.265l7.666-5.111v5.111h4.138V99.165l7.666,5.111h1.851a.418.418,0,0,0,.414-.421v-1.089l-6.577-4.385H24V94.171H17.423L24,89.786Z" transform="translate(0 0)"/><g transform="translate(0 88.276)"><path class="c" d="M24,95.013H13.241V88.276H10.759v6.737H0v2.526H10.759v6.737h2.483V97.539H24Z" transform="translate(0 -88.276)"/><path class="c" d="M8.626,300.138.25,305.671a.411.411,0,0,0,.4.362h.57l8.924-5.895H8.626Z" transform="translate(-0.238 -290.033)"/><path class="c" d="M315.48,300.138h-1.52l8.912,5.886a.414.414,0,0,0,.372-.412v-.346Z" transform="translate(-299.243 -290.033)"/><path class="c" d="M0,89.982l7.583,5.009H9.1L.241,89.137a.42.42,0,0,0-.241.38Z" transform="translate(0 -89.096)"/><path class="c" d="M301.658,94.172l8.4-5.546a.41.41,0,0,0-.4-.349h-.593l-8.924,5.895Z" transform="translate(-286.069 -88.277)"/></g></g></svg>