<svg xmlns="http://www.w3.org/2000/svg" width="24" height="16" viewBox="0 0 24 16"><defs><style>.a{fill:#f5f5f5;}.b{fill:#ff4b55;}.c{fill:#41479b;}</style></defs><g transform="translate(0 -88.276)"><path class="a" d="M23.586,104.276H.414A.418.418,0,0,1,0,103.855V88.7a.418.418,0,0,1,.414-.421H23.586A.418.418,0,0,1,24,88.7v15.158A.418.418,0,0,1,23.586,104.276Z" transform="translate(0 0)"/><g transform="translate(0 88.276)"><path class="b" d="M24,89.507H0V88.7a.418.418,0,0,1,.414-.421H23.586A.418.418,0,0,1,24,88.7v.81Z" transform="translate(0 -88.276)"/><rect class="b" width="24" height="1.231" transform="translate(0 4.923)"/><rect class="b" width="24" height="1.231" transform="translate(0 2.461)"/><path class="b" d="M24,244.329H.414A.418.418,0,0,1,0,243.908v-.81H24Z" transform="translate(0 -235.713)"/><rect class="b" width="24" height="1.231" transform="translate(0 12.308)"/><path class="b" d="M23.586,399.152H.414A.418.418,0,0,1,0,398.731v-.81H24v.81A.417.417,0,0,1,23.586,399.152Z" transform="translate(0 -383.152)"/><rect class="b" width="24" height="1.231" transform="translate(0 9.846)"/></g><path class="c" d="M10.759,88.277H.414A.417.417,0,0,0,0,88.7v7.773a.418.418,0,0,0,.414.421H10.759a.418.418,0,0,0,.414-.421V88.7A.418.418,0,0,0,10.759,88.277Z" transform="translate(0 -0.001)"/><g transform="translate(0.668 89.215)"><path class="a" d="M14.747,108l.092.28.29,0a.04.04,0,0,1,.023.072l-.233.175.087.281a.039.039,0,0,1-.06.044l-.236-.171-.236.171a.039.039,0,0,1-.06-.044l.087-.281-.233-.175a.04.04,0,0,1,.023-.072l.29,0,.092-.28A.039.039,0,0,1,14.747,108Z" transform="translate(-14.253 -107.969)"/><path class="a" d="M14.747,138.651l.092.28.29,0a.04.04,0,0,1,.023.072l-.233.175.087.281a.039.039,0,0,1-.06.044l-.236-.171-.236.171a.039.039,0,0,1-.06-.044l.087-.281L14.269,139a.04.04,0,0,1,.023-.072l.29,0,.092-.28A.039.039,0,0,1,14.747,138.651Z" transform="translate(-14.253 -137.161)"/><path class="a" d="M14.747,169.3l.092.279.29,0a.04.04,0,0,1,.023.072l-.233.175.087.281a.039.039,0,0,1-.06.044l-.236-.171-.236.171a.039.039,0,0,1-.06-.044l.087-.281-.233-.175a.04.04,0,0,1,.023-.072l.29,0,.092-.28A.039.039,0,0,1,14.747,169.3Z" transform="translate(-14.253 -166.353)"/><path class="a" d="M14.747,199.959l.092.28.29,0a.04.04,0,0,1,.023.072l-.233.175.087.281a.039.039,0,0,1-.06.044l-.236-.171-.236.171a.039.039,0,0,1-.06-.044l.087-.281-.233-.175a.04.04,0,0,1,.023-.072l.29,0,.092-.279A.039.039,0,0,1,14.747,199.959Z" transform="translate(-14.253 -195.545)"/><path class="a" d="M14.747,230.612l.092.279.29,0a.04.04,0,0,1,.023.072l-.233.175.087.281a.039.039,0,0,1-.06.044l-.236-.171-.236.171a.039.039,0,0,1-.06-.044l.087-.281-.233-.175a.04.04,0,0,1,.023-.072l.29,0,.092-.28A.039.039,0,0,1,14.747,230.612Z" transform="translate(-14.253 -224.737)"/><path class="a" d="M38.54,123.026l.092.28.29,0a.04.04,0,0,1,.023.072l-.233.175.087.281a.039.039,0,0,1-.06.044l-.236-.171-.236.171a.039.039,0,0,1-.06-.044l.087-.281-.233-.175a.04.04,0,0,1,.023-.072l.29,0,.092-.28A.039.039,0,0,1,38.54,123.026Z" transform="translate(-36.93 -122.282)"/><path class="a" d="M38.54,153.68l.092.28.29,0a.04.04,0,0,1,.023.072l-.233.175.087.281a.039.039,0,0,1-.06.044l-.236-.171-.236.171a.039.039,0,0,1-.06-.044l.087-.281-.233-.175a.04.04,0,0,1,.023-.072l.29,0,.092-.28A.039.039,0,0,1,38.54,153.68Z" transform="translate(-36.93 -151.474)"/><path class="a" d="M38.54,184.334l.092.279.29,0a.04.04,0,0,1,.023.072l-.233.175.087.281a.039.039,0,0,1-.06.044l-.236-.171-.236.171a.039.039,0,0,1-.06-.044l.087-.281-.233-.175a.04.04,0,0,1,.023-.072l.29,0,.092-.279A.039.039,0,0,1,38.54,184.334Z" transform="translate(-36.93 -180.666)"/><path class="a" d="M38.54,214.989l.092.28.29,0a.04.04,0,0,1,.023.072l-.233.175.087.281a.039.039,0,0,1-.06.044l-.236-.171-.236.171a.039.039,0,0,1-.06-.044l.087-.281-.233-.175a.04.04,0,0,1,.023-.072l.29,0,.092-.28A.039.039,0,0,1,38.54,214.989Z" transform="translate(-36.93 -209.858)"/><path class="a" d="M62.333,108l.092.28.29,0a.04.04,0,0,1,.023.072l-.233.175.087.281a.039.039,0,0,1-.06.044l-.236-.171-.236.171a.039.039,0,0,1-.06-.044l.087-.281-.233-.175a.04.04,0,0,1,.023-.072l.29,0,.092-.28A.039.039,0,0,1,62.333,108Z" transform="translate(-59.608 -107.969)"/><path class="a" d="M62.333,138.651l.092.28.29,0a.04.04,0,0,1,.023.072l-.233.175.087.281a.039.039,0,0,1-.06.044l-.236-.171-.236.171a.039.039,0,0,1-.06-.044l.087-.281L61.855,139a.04.04,0,0,1,.023-.072l.29,0,.092-.28A.039.039,0,0,1,62.333,138.651Z" transform="translate(-59.608 -137.161)"/><path class="a" d="M62.333,169.3l.092.28.29,0a.04.04,0,0,1,.023.072l-.233.175.087.281a.039.039,0,0,1-.06.044l-.236-.171-.236.171a.039.039,0,0,1-.06-.044l.087-.281-.233-.175a.04.04,0,0,1,.023-.072l.29,0,.092-.28A.039.039,0,0,1,62.333,169.3Z" transform="translate(-59.608 -166.353)"/><path class="a" d="M62.333,199.959l.092.28.29,0a.04.04,0,0,1,.023.072l-.233.175.087.281a.039.039,0,0,1-.06.044l-.236-.171-.236.171a.039.039,0,0,1-.06-.044l.087-.281-.233-.175a.04.04,0,0,1,.023-.072l.29,0,.092-.28A.039.039,0,0,1,62.333,199.959Z" transform="translate(-59.608 -195.545)"/><path class="a" d="M62.333,230.612l.092.279.29,0a.04.04,0,0,1,.023.072l-.233.175.087.281a.039.039,0,0,1-.06.044l-.236-.171-.236.171a.039.039,0,0,1-.06-.044l.087-.281-.233-.175a.04.04,0,0,1,.023-.072l.29,0,.092-.279A.039.039,0,0,1,62.333,230.612Z" transform="translate(-59.608 -224.737)"/><path class="a" d="M86.127,123.026l.092.28.29,0a.04.04,0,0,1,.023.072l-.233.175.087.281a.039.039,0,0,1-.06.044l-.236-.171-.236.171a.039.039,0,0,1-.06-.044l.087-.281-.233-.175a.04.04,0,0,1,.023-.072l.29,0,.092-.28A.039.039,0,0,1,86.127,123.026Z" transform="translate(-82.287 -122.282)"/><path class="a" d="M86.127,153.68l.092.28.29,0a.04.04,0,0,1,.023.072l-.233.175.087.281a.039.039,0,0,1-.06.044l-.236-.171-.236.171a.039.039,0,0,1-.06-.044l.087-.281-.233-.175a.04.04,0,0,1,.023-.072l.29,0,.092-.28A.039.039,0,0,1,86.127,153.68Z" transform="translate(-82.287 -151.474)"/><path class="a" d="M86.127,184.334l.092.279.29,0a.04.04,0,0,1,.023.072l-.233.175.087.281a.039.039,0,0,1-.06.044l-.236-.171-.236.171a.039.039,0,0,1-.06-.044l.087-.281-.233-.175a.04.04,0,0,1,.023-.072l.29,0,.092-.279A.039.039,0,0,1,86.127,184.334Z" transform="translate(-82.287 -180.666)"/><path class="a" d="M86.127,214.989l.092.28.29,0a.04.04,0,0,1,.023.072l-.233.175.087.281a.039.039,0,0,1-.06.044l-.236-.171-.236.171a.039.039,0,0,1-.06-.044l.087-.281-.233-.175a.04.04,0,0,1,.023-.072l.29,0,.092-.28A.039.039,0,0,1,86.127,214.989Z" transform="translate(-82.287 -209.858)"/><path class="a" d="M109.919,108l.092.28.29,0a.04.04,0,0,1,.023.072l-.233.175.087.281a.039.039,0,0,1-.06.044l-.236-.171-.236.171a.039.039,0,0,1-.06-.044l.087-.281-.233-.175a.04.04,0,0,1,.023-.072l.29,0,.092-.28A.039.039,0,0,1,109.919,108Z" transform="translate(-104.963 -107.969)"/><path class="a" d="M109.919,138.651l.092.28.29,0a.04.04,0,0,1,.023.072l-.233.175.087.281a.039.039,0,0,1-.06.044l-.236-.171-.236.171a.039.039,0,0,1-.06-.044l.087-.281-.233-.175a.04.04,0,0,1,.023-.072l.29,0,.092-.28A.039.039,0,0,1,109.919,138.651Z" transform="translate(-104.963 -137.161)"/><path class="a" d="M109.919,169.3l.092.28.29,0a.04.04,0,0,1,.023.072l-.233.175.087.281a.039.039,0,0,1-.06.044l-.236-.171-.236.171a.039.039,0,0,1-.06-.044l.087-.281-.233-.175a.04.04,0,0,1,.023-.072l.29,0,.092-.28A.039.039,0,0,1,109.919,169.3Z" transform="translate(-104.963 -166.353)"/><path class="a" d="M109.919,199.959l.092.28.29,0a.04.04,0,0,1,.023.072l-.233.175.087.281a.039.039,0,0,1-.06.044l-.236-.171-.236.171a.039.039,0,0,1-.06-.044l.087-.281-.233-.175a.04.04,0,0,1,.023-.072l.29,0,.092-.28A.039.039,0,0,1,109.919,199.959Z" transform="translate(-104.963 -195.545)"/><path class="a" d="M109.919,230.612l.092.279.29,0a.04.04,0,0,1,.023.072l-.233.175.087.281a.039.039,0,0,1-.06.044l-.236-.171-.236.171a.039.039,0,0,1-.06-.044l.087-.281-.233-.175a.04.04,0,0,1,.023-.072l.29,0,.092-.279A.039.039,0,0,1,109.919,230.612Z" transform="translate(-104.963 -224.737)"/><path class="a" d="M133.713,123.026l.092.28.29,0a.04.04,0,0,1,.023.072l-.233.175.087.281a.039.039,0,0,1-.06.044l-.236-.171-.236.171a.039.039,0,0,1-.06-.044l.087-.281-.233-.175a.04.04,0,0,1,.023-.072l.29,0,.092-.28A.039.039,0,0,1,133.713,123.026Z" transform="translate(-127.642 -122.282)"/><path class="a" d="M133.713,153.68l.092.28.29,0a.04.04,0,0,1,.023.072l-.233.175.087.281a.039.039,0,0,1-.06.044l-.236-.171-.236.171a.039.039,0,0,1-.06-.044l.087-.281-.233-.175a.04.04,0,0,1,.023-.072l.29,0,.092-.28A.039.039,0,0,1,133.713,153.68Z" transform="translate(-127.642 -151.474)"/><path class="a" d="M133.713,184.334l.092.279.29,0a.04.04,0,0,1,.023.072l-.233.175.087.281a.039.039,0,0,1-.06.044l-.236-.171-.236.171a.039.039,0,0,1-.06-.044l.087-.281-.233-.175a.04.04,0,0,1,.023-.072l.29,0,.092-.279A.039.039,0,0,1,133.713,184.334Z" transform="translate(-127.642 -180.666)"/><path class="a" d="M133.713,214.989l.092.28.29,0a.04.04,0,0,1,.023.072l-.233.175.087.281a.039.039,0,0,1-.06.044l-.236-.171-.236.171a.039.039,0,0,1-.06-.044l.087-.281-.233-.175a.04.04,0,0,1,.023-.072l.29,0,.092-.28A.039.039,0,0,1,133.713,214.989Z" transform="translate(-127.642 -209.858)"/><path class="a" d="M157.507,108l.092.28.29,0a.04.04,0,0,1,.023.072l-.233.175.087.281a.039.039,0,0,1-.06.044l-.236-.171-.236.171a.039.039,0,0,1-.06-.044l.087-.281-.233-.175a.04.04,0,0,1,.023-.072l.29,0,.092-.28A.039.039,0,0,1,157.507,108Z" transform="translate(-150.321 -107.969)"/><path class="a" d="M157.507,138.651l.092.28.29,0a.04.04,0,0,1,.023.072l-.233.175.087.281a.039.039,0,0,1-.06.044l-.236-.171-.236.171a.039.039,0,0,1-.06-.044l.087-.281-.233-.175a.04.04,0,0,1,.023-.072l.29,0,.092-.28A.039.039,0,0,1,157.507,138.651Z" transform="translate(-150.321 -137.161)"/><path class="a" d="M157.507,169.3l.092.28.29,0a.04.04,0,0,1,.023.072l-.233.175.087.281a.039.039,0,0,1-.06.044l-.236-.171-.236.171a.039.039,0,0,1-.06-.044l.087-.281-.233-.175a.04.04,0,0,1,.023-.072l.29,0,.092-.28A.039.039,0,0,1,157.507,169.3Z" transform="translate(-150.321 -166.353)"/><path class="a" d="M157.507,199.959l.092.28.29,0a.04.04,0,0,1,.023.072l-.233.175.087.281a.039.039,0,0,1-.06.044l-.236-.171-.236.171a.039.039,0,0,1-.06-.044l.087-.281-.233-.175a.04.04,0,0,1,.023-.072l.29,0,.092-.28A.039.039,0,0,1,157.507,199.959Z" transform="translate(-150.321 -195.545)"/><path class="a" d="M157.507,230.612l.092.279.29,0a.04.04,0,0,1,.023.072l-.233.175.087.281a.039.039,0,0,1-.06.044l-.236-.171-.236.171a.039.039,0,0,1-.06-.044l.087-.281-.233-.175a.04.04,0,0,1,.023-.072l.29,0,.092-.279A.039.039,0,0,1,157.507,230.612Z" transform="translate(-150.321 -224.737)"/><path class="a" d="M181.3,123.026l.092.28.29,0a.04.04,0,0,1,.023.072l-.233.175.087.281a.039.039,0,0,1-.06.044l-.236-.171-.236.171a.039.039,0,0,1-.06-.044l.087-.281-.233-.175a.04.04,0,0,1,.023-.072l.29,0,.092-.28A.039.039,0,0,1,181.3,123.026Z" transform="translate(-172.998 -122.282)"/><path class="a" d="M181.3,153.68l.092.28.29,0a.04.04,0,0,1,.023.072l-.233.175.087.281a.039.039,0,0,1-.06.044l-.236-.171-.236.171a.039.039,0,0,1-.06-.044l.087-.281-.233-.175a.04.04,0,0,1,.023-.072l.29,0,.092-.28A.039.039,0,0,1,181.3,153.68Z" transform="translate(-172.998 -151.474)"/><path class="a" d="M181.3,184.334l.092.279.29,0a.04.04,0,0,1,.023.072l-.233.175.087.281a.039.039,0,0,1-.06.044l-.236-.171-.236.171a.039.039,0,0,1-.06-.044l.087-.281-.233-.175a.04.04,0,0,1,.023-.072l.29,0,.092-.279A.039.039,0,0,1,181.3,184.334Z" transform="translate(-172.998 -180.666)"/><path class="a" d="M181.3,214.989l.092.28.29,0a.04.04,0,0,1,.023.072l-.233.175.087.281a.039.039,0,0,1-.06.044l-.236-.171-.236.171a.039.039,0,0,1-.06-.044l.087-.281-.233-.175a.04.04,0,0,1,.023-.072l.29,0,.092-.28A.039.039,0,0,1,181.3,214.989Z" transform="translate(-172.998 -209.858)"/><path class="a" d="M205.094,108l.092.28.29,0a.04.04,0,0,1,.023.072l-.233.175.087.281a.039.039,0,0,1-.06.044l-.236-.171-.236.171a.039.039,0,0,1-.06-.044l.087-.281-.233-.175a.04.04,0,0,1,.023-.072l.29,0,.092-.28A.039.039,0,0,1,205.094,108Z" transform="translate(-195.677 -107.969)"/><path class="a" d="M205.094,138.651l.092.28.29,0a.04.04,0,0,1,.023.072l-.233.175.087.281a.039.039,0,0,1-.06.044l-.236-.171-.236.171a.039.039,0,0,1-.06-.044l.087-.281-.233-.175a.04.04,0,0,1,.023-.072l.29,0,.092-.28A.039.039,0,0,1,205.094,138.651Z" transform="translate(-195.677 -137.161)"/><path class="a" d="M205.094,169.3l.092.28.29,0a.04.04,0,0,1,.023.072l-.233.175.087.281a.039.039,0,0,1-.06.044l-.236-.171-.236.171a.039.039,0,0,1-.06-.044l.087-.281-.233-.175a.04.04,0,0,1,.023-.072l.29,0,.092-.28A.039.039,0,0,1,205.094,169.3Z" transform="translate(-195.677 -166.353)"/><path class="a" d="M205.094,199.959l.092.28.29,0a.04.04,0,0,1,.023.072l-.233.175.087.281a.039.039,0,0,1-.06.044l-.236-.171-.236.171a.039.039,0,0,1-.06-.044l.087-.281-.233-.175a.04.04,0,0,1,.023-.072l.29,0,.092-.28A.039.039,0,0,1,205.094,199.959Z" transform="translate(-195.677 -195.545)"/><path class="a" d="M205.094,230.612l.092.279.29,0a.04.04,0,0,1,.023.072l-.233.175.087.281a.039.039,0,0,1-.06.044l-.236-.171-.236.171a.039.039,0,0,1-.06-.044l.087-.281-.233-.175a.04.04,0,0,1,.023-.072l.29,0,.092-.279A.039.039,0,0,1,205.094,230.612Z" transform="translate(-195.677 -224.737)"/></g></g></svg>